<svg width="32" height="32" viewBox="0 0 32 32" fill="none" xmlns="http://www.w3.org/2000/svg">
<path d="M4.4114 23.3857C4.5229 22.8986 4.48035 22.3906 4.2892 21.927C2.959 19.2732 2.64633 16.2529 3.40636 13.3991C4.16639 10.5452 5.95027 8.04121 8.44327 6.32877C10.9363 4.61634 13.9782 3.80556 17.0323 4.03949C20.0864 4.27341 22.9564 5.53701 25.1361 7.60733C27.3157 9.67766 28.6648 12.4217 28.9454 15.3552C29.2259 18.2888 28.4199 21.2233 26.6696 23.6412C24.9192 26.059 22.337 27.8047 19.3785 28.5703C16.42 29.3359 13.2753 29.0722 10.4993 27.8257C10.0437 27.6594 9.54862 27.6195 9.07059 27.7107L4.6337 28.9582C4.41967 29.0128 4.19467 29.0139 3.98006 28.9615C3.76544 28.9091 3.56831 28.8048 3.40736 28.6585C3.24642 28.5123 3.12699 28.3289 3.06041 28.1259C2.99382 27.9228 2.98229 27.7067 3.0269 27.4982L4.4114 23.3857Z" stroke="white" stroke-width="2" stroke-linecap="round" stroke-linejoin="round"/>
</svg>
