<svg width="555" height="772" viewBox="0 0 555 772" fill="none" xmlns="http://www.w3.org/2000/svg">
<path d="M43.8911 21.19C53.5076 19.9754 65.0676 18.1438 74.8029 16.6448C86.6635 14.8191 100.452 11.3079 112.457 9.15508C115.906 8.5367 119.619 8.40559 122.893 7.76543C140.321 4.35794 159.072 0.678324 176.791 0.00908228C181.72 -0.177115 192.772 2.55746 198.256 2.90424C204.919 3.32531 199.396 24.7803 202.887 28.1194C206.115 31.2075 219.728 33.312 224.515 33.4333C234.024 36.3326 223.112 57.1521 232.571 60.6625C237.682 62.559 251.165 61.7254 255.12 66.9103C256.247 69.0469 255.73 78.2837 256.157 82.1379C255.93 84.1361 256.938 88.7112 257.337 90.8008C263.346 93.2196 279.116 94.5046 282.69 96.7014C287.05 102.641 281.862 118.469 286.773 121.639C290.975 124.353 305.891 125.417 310.32 128.772C314.829 132.187 312.216 148.246 313.488 154.139C321.598 158.316 332.129 158.468 340.106 161.955C344.906 164.685 340.217 184.932 343.509 186.876C351.965 191.872 367.073 189.745 373.462 198.801C373.189 200.552 372.885 202.666 372.779 204.242C371.933 216.623 370.208 221.854 384.24 224.315C386.213 224.661 399.178 229.16 401.241 230.154C406.929 232.899 398.482 252.747 405.136 255.938C410.375 258.026 416.123 259.651 421.577 261.292C450.124 269.881 478.924 279.995 507.395 288.509L534.328 296.63C538.735 297.934 552.943 301.012 554.527 305.593C555.335 307.929 552.657 326.662 551 328.047C543.45 334.346 531.898 337.988 523.123 342.536C501.544 353.934 478.138 363.852 457.094 375.951C454.181 377.627 439.683 398.304 436.69 402.284L370.708 491.44L350.649 517.918C349.834 518.981 346.097 522.996 345.978 523.384C345.038 526.493 342.86 527.693 341.237 530.239C336.544 537.593 330.668 543.969 325.62 550.925C293.306 595.467 260.507 639.655 227.223 683.475C217.068 697.094 207.033 711.537 196.74 725.178C194.532 728.103 191.743 731.31 189.452 734.189C187.225 736.986 182.97 744.331 180.785 746.402C171.813 754.905 154.098 766.491 143.115 772L65.1227 714.441C52.1573 704.935 38.8153 695.805 26.189 685.782C19.1842 680.495 10.4303 676.335 4.23561 670.087C1.31123 667.512 -1.57983 647.359 1.00078 645.1C10.5819 636.704 27.1545 631.409 37.7472 624.388C41.919 621.62 38.3007 606.494 38.7811 601.754C38.9455 596.322 43.3377 595.775 47.0145 593.264C54.6291 588.067 69.3756 583.612 75.9017 577.727C76.0823 573.226 74.9981 555.802 76.1284 553.864C79.0972 548.777 104.324 538.592 110.036 535.62C114.035 525.409 110.566 520.156 111.01 509.018C116.307 507.242 129.017 498.03 135.169 496.604C156.591 491.624 141.947 475.135 147.146 466.197C150.472 460.479 173.583 455.034 180.418 447.834C180.661 443.567 180.166 426.865 180.988 424.922C182.848 420.536 207.62 410.966 212.469 408.865C213.143 405.67 213.54 403.044 213.966 399.858C214.795 394.473 212.213 382.745 218.408 379.999C226.152 376.566 235.503 372.732 243.582 369.967C245.338 367.991 246.293 366.331 246.52 363.635C247.149 356.187 246.304 349.139 247.419 341.658C255.34 338.788 265.937 334.677 273.449 330.813C274.128 330.466 275.755 328.268 276.297 327.543C273.146 323.787 270.532 319.273 267.217 315.308L112.495 128.262L65.5993 71.3065C60.2754 64.8045 52.8995 56.9983 48.1504 50.3085C44.4283 45.0646 43.7117 27.8687 43.8911 21.19Z" fill="#EFF2F8"/>
</svg>
